<svg width="114" height="48" viewBox="0 0 114 48" fill="none" xmlns="http://www.w3.org/2000/svg">
<g filter="url(#filter0_d_302_3)">
<path d="M12.992 4.736V31.76H25.952L25.136 38H5.12V4.736H12.992Z" fill="#141414"/>
<path d="M39.4066 11.696C43.3106 11.696 46.3666 12.896 48.5746 15.296C50.7826 17.664 51.8866 20.992 51.8866 25.28C51.8866 28 51.3746 30.384 50.3506 32.432C49.3586 34.448 47.9186 36.016 46.0306 37.136C44.1746 38.256 41.9666 38.816 39.4066 38.816C35.5346 38.816 32.4786 37.632 30.2386 35.264C28.0306 32.864 26.9266 29.52 26.9266 25.232C26.9266 22.512 27.4226 20.144 28.4146 18.128C29.4386 16.08 30.8786 14.496 32.7346 13.376C34.6226 12.256 36.8466 11.696 39.4066 11.696ZM39.4066 17.264C37.8706 17.264 36.7186 17.92 35.9506 19.232C35.1826 20.512 34.7986 22.512 34.7986 25.232C34.7986 28.016 35.1666 30.048 35.9026 31.328C36.6706 32.608 37.8386 33.248 39.4066 33.248C40.9426 33.248 42.0946 32.608 42.8626 31.328C43.6306 30.016 44.0146 28 44.0146 25.28C44.0146 22.496 43.6306 20.464 42.8626 19.184C42.1266 17.904 40.9746 17.264 39.4066 17.264Z" fill="#141414"/>
<path d="M70.8459 11.696C73.8859 11.696 76.2219 12.896 77.8539 15.296C79.4859 17.664 80.3019 20.992 80.3019 25.28C80.3019 27.904 79.8859 30.24 79.0539 32.288C78.2539 34.336 77.0859 35.936 75.5499 37.088C74.0459 38.24 72.2539 38.816 70.1739 38.816C68.7979 38.816 67.5339 38.528 66.3819 37.952C65.2619 37.376 64.3019 36.576 63.5019 35.552L63.1179 38H56.3979V2.38399L63.9819 1.56799V15.104C64.7499 14.048 65.7259 13.216 66.9099 12.608C68.1259 12 69.4379 11.696 70.8459 11.696ZM67.9659 33.296C70.9419 33.296 72.4299 30.624 72.4299 25.28C72.4299 22.24 72.0779 20.144 71.3739 18.992C70.6699 17.84 69.6459 17.264 68.3019 17.264C66.6059 17.264 65.1659 18.256 63.9819 20.24V30.848C64.4619 31.616 65.0379 32.224 65.7099 32.672C66.4139 33.088 67.1659 33.296 67.9659 33.296Z" fill="#141414"/>
<path d="M96.0785 11.696C99.9825 11.696 103.038 12.896 105.246 15.296C107.454 17.664 108.558 20.992 108.558 25.28C108.558 28 108.046 30.384 107.022 32.432C106.03 34.448 104.59 36.016 102.702 37.136C100.846 38.256 98.6385 38.816 96.0785 38.816C92.2065 38.816 89.1505 37.632 86.9105 35.264C84.7025 32.864 83.5985 29.52 83.5985 25.232C83.5985 22.512 84.0945 20.144 85.0865 18.128C86.1105 16.08 87.5505 14.496 89.4065 13.376C91.2945 12.256 93.5185 11.696 96.0785 11.696ZM96.0785 17.264C94.5425 17.264 93.3905 17.92 92.6225 19.232C91.8545 20.512 91.4705 22.512 91.4705 25.232C91.4705 28.016 91.8385 30.048 92.5745 31.328C93.3425 32.608 94.5105 33.248 96.0785 33.248C97.6145 33.248 98.7665 32.608 99.5345 31.328C100.302 30.016 100.686 28 100.686 25.28C100.686 22.496 100.302 20.464 99.5345 19.184C98.7985 17.904 97.6465 17.264 96.0785 17.264Z" fill="#141414"/>
<path d="M13.492 4.736V4.236H12.992H5.12H4.62V4.736V38V38.5H5.12H25.136H25.5749L25.6318 38.0648L26.4478 31.8248L26.5216 31.26H25.952H13.492V4.736ZM29.8707 35.6025L29.8706 35.6026L29.8754 35.6076C32.2275 38.0941 35.4252 39.316 39.4066 39.316C42.0403 39.316 44.3405 38.7394 46.2873 37.5651C48.2596 36.3947 49.7651 34.7538 50.7986 32.6541C51.8627 30.5251 52.3866 28.0625 52.3866 25.28C52.3866 20.9082 51.2599 17.4435 48.9415 14.9562C46.6203 12.434 43.4199 11.196 39.4066 11.196C36.7719 11.196 34.4568 11.773 32.4795 12.946L32.4795 12.946L32.4763 12.9479C30.5346 14.1196 29.0312 15.7767 27.9674 17.9044L27.966 17.9072C26.9338 20.0049 26.4266 22.4513 26.4266 25.232C26.4266 29.6049 27.5538 33.0842 29.8707 35.6025ZM36.3794 19.4892L36.3794 19.4893L36.3821 19.4846C37.0593 18.3278 38.0459 17.764 39.4066 17.764C40.8093 17.764 41.7889 18.3198 42.4292 19.4332L42.4291 19.4333L42.4339 19.4412C43.1301 20.6015 43.5146 22.5203 43.5146 25.28C43.5146 27.9698 43.1318 29.8768 42.4324 31.0732C41.758 32.1957 40.7723 32.748 39.4066 32.748C38.0051 32.748 37.0059 32.1924 36.3337 31.0747C35.6666 29.9115 35.2986 27.9903 35.2986 25.232C35.2986 22.5389 35.6825 20.6508 36.3794 19.4892ZM64.4819 13.7529V1.56799V1.01131L63.9284 1.07086L56.3444 1.88686L55.8979 1.93491V2.38399V38V38.5H56.3979H63.1179H63.5456L63.6118 38.0775L63.8303 36.685C64.5133 37.3803 65.2878 37.9516 66.1532 38.3966L66.1532 38.3967L66.1583 38.3992C67.3844 39.0123 68.7257 39.316 70.1739 39.316C72.3514 39.316 74.2522 38.711 75.8516 37.4867C77.4707 36.2718 78.6898 34.5927 79.5184 32.4731C80.3779 30.356 80.8019 27.9554 80.8019 25.28C80.8019 20.938 79.9771 17.4961 78.2661 15.013C76.5359 12.4698 74.0413 11.196 70.8459 11.196C69.3631 11.196 67.9742 11.5168 66.6863 12.1608L66.6862 12.1608L66.6815 12.1632C65.8534 12.5884 65.1196 13.1186 64.4819 13.7529ZM86.5425 35.6026L86.5473 35.6076C88.8993 38.0941 92.097 39.316 96.0785 39.316C98.712 39.316 101.012 38.7394 102.959 37.5653C104.932 36.3947 106.437 34.7536 107.471 32.6536C108.535 30.5247 109.058 28.0622 109.058 25.28C109.058 20.9082 107.932 17.4435 105.613 14.9562C103.292 12.434 100.092 11.196 96.0785 11.196C93.4438 11.196 91.1286 11.773 89.1514 12.946L89.1482 12.9479C87.2065 14.1196 85.7031 15.7767 84.6393 17.9044L84.6379 17.9072C83.6057 20.0049 83.0985 22.4513 83.0985 25.232C83.0985 29.6049 84.2257 33.0842 86.5425 35.6026ZM93.0513 19.4893L93.054 19.4846C93.7312 18.3278 94.7178 17.764 96.0785 17.764C97.4811 17.764 98.4608 18.3198 99.101 19.4332L99.101 19.4333L99.1057 19.4412C99.8019 20.6015 100.186 22.5203 100.186 25.28C100.186 27.9698 99.8037 29.8768 99.1043 31.0732C98.4299 32.1957 97.4441 32.748 96.0785 32.748C94.677 32.748 93.6778 32.1924 93.0056 31.0747C92.3385 29.9115 91.9705 27.9903 91.9705 25.232C91.9705 22.5389 92.3543 20.6508 93.0513 19.4893ZM71.9299 25.28C71.9299 27.922 71.5592 29.8238 70.877 31.0487C70.5402 31.6537 70.1325 32.0844 69.6621 32.366C69.1923 32.6472 68.6327 32.796 67.9659 32.796C67.2618 32.796 66.6012 32.6153 65.9759 32.2484C65.4084 31.8677 64.9095 31.3555 64.4819 30.7018V20.3796C65.5958 18.5675 66.8736 17.764 68.3019 17.764C69.4707 17.764 70.3336 18.2485 70.9472 19.2527C71.2523 19.752 71.502 20.4937 71.6728 21.5108C71.8427 22.5226 71.9299 23.777 71.9299 25.28Z" stroke="black"/>
</g>
<defs>
<filter id="filter0_d_302_3" x="0.119995" y="0.45462" width="113.438" height="47.3614" filterUnits="userSpaceOnUse" color-interpolation-filters="sRGB">
<feFlood flood-opacity="0" result="BackgroundImageFix"/>
<feColorMatrix in="SourceAlpha" type="matrix" values="0 0 0 0 0 0 0 0 0 0 0 0 0 0 0 0 0 0 127 0" result="hardAlpha"/>
<feOffset dy="4"/>
<feGaussianBlur stdDeviation="2"/>
<feComposite in2="hardAlpha" operator="out"/>
<feColorMatrix type="matrix" values="0 0 0 0 0 0 0 0 0 0 0 0 0 0 0 0 0 0 0.25 0"/>
<feBlend mode="normal" in2="BackgroundImageFix" result="effect1_dropShadow_302_3"/>
<feBlend mode="normal" in="SourceGraphic" in2="effect1_dropShadow_302_3" result="shape"/>
</filter>
</defs>
</svg>
